<?xml version="1.0" standalone="no"?>
<!DOCTYPE svg PUBLIC "-//W3C//DTD SVG 20010904//EN"
 "http://www.w3.org/TR/2001/REC-SVG-20010904/DTD/svg10.dtd">
<svg version="1.0" xmlns="http://www.w3.org/2000/svg"
 width="576.000000pt" height="576.000000pt" viewBox="0 0 576.000000 576.000000"
 preserveAspectRatio="xMidYMid meet">
<metadata>
Created by potrace 1.11, written by Peter Selinger 2001-2013
</metadata>
<g transform="translate(0.000000,576.000000) scale(0.100000,-0.100000)"
fill="#000000" stroke="none">
<path d="M2450 5419 c-68 -24 -139 -87 -173 -154 -28 -53 -37 -100 -37 -180 0
-27 0 -63 -1 -80 -1 -16 -1 -37 0 -45 6 -129 -4 -180 -32 -163 -6 4 -286 5
-412 2 -5 0 -39 0 -75 0 -144 2 -267 2 -300 1 -19 -1 -41 -2 -47 -1 -7 1 -19
1 -25 2 -20 1 -140 0 -173 -2 -16 0 -34 -1 -40 -1 -11 1 -271 1 -295 1 -8 0
-44 0 -80 0 -76 1 -228 -6 -250 -12 -148 -39 -226 -83 -320 -177 -80 -80 -131
-166 -166 -275 -18 -58 -19 -117 -19 -1770 0 -940 3 -1719 6 -1730 3 -11 11
-40 18 -65 42 -151 177 -309 325 -380 156 -75 -28 -71 2561 -68 1276 2 2331 6
2344 10 137 41 221 89 310 179 42 41 85 93 96 115 11 21 23 41 26 44 4 3 20
41 35 85 l29 80 0 1705 c0 938 -4 1725 -8 1750 -10 54 -47 147 -84 209 -48 82
-164 186 -257 231 -106 51 -134 58 -256 66 -41 2 -94 4 -117 4 -24 -1 -49 -1
-55 -1 -7 0 -74 0 -148 0 -74 0 -142 0 -150 0 -8 0 -44 0 -80 0 -36 1 -102 0
-148 -1 -45 -2 -82 -1 -82 2 0 3 -27 3 -60 0 -34 -3 -63 -4 -65 -2 -4 4 -207
5 -222 1 -5 -1 -12 -1 -17 0 -8 2 -152 1 -231 -1 -5 0 -32 0 -60 1 -27 0 -59
1 -70 1 -104 -2 -127 1 -121 15 3 8 2 15 -3 15 -4 0 -5 21 -1 48 3 26 3 63 0
82 -3 19 -3 49 0 65 9 52 -8 181 -32 232 -28 59 -91 123 -154 154 l-49 24
-390 2 c-364 2 -394 1 -445 -18z m230 -303 c28 1 53 4 56 6 2 3 24 2 48 -2 23
-3 51 -4 60 0 10 3 42 3 72 0 31 -3 57 -2 60 2 3 5 9 6 14 3 7 -4 65 -6 110
-4 8 0 34 0 58 -2 l42 -2 0 -56 c0 -31 1 -63 1 -71 1 -8 0 -35 0 -60 0 -25 0
-52 0 -60 1 -8 0 -28 0 -45 -2 -31 -3 -139 -2 -165 1 -8 1 -31 0 -50 0 -19 0
-42 0 -50 0 -8 0 -40 0 -70 0 -72 0 -72 1 -95 1 -11 0 -40 0 -65 -1 -25 -1
-49 0 -55 1 -5 2 -33 1 -62 l-1 -51 -45 -2 c-25 0 -53 -1 -62 0 -65 1 -106 -1
-113 -5 -5 -3 -11 -2 -14 3 -3 4 -29 6 -58 3 -29 -3 -77 -4 -106 -1 -30 3 -56
2 -58 -2 -3 -5 -10 -6 -15 -3 -5 4 -44 6 -87 6 l-79 0 -2 42 c-2 23 -2 49 -2
57 2 45 0 103 -4 110 -3 5 -2 11 3 14 4 3 5 29 2 60 -3 30 -3 62 0 72 4 9 3
37 0 61 -4 24 -4 46 0 48 3 2 3 28 0 59 -3 30 -3 62 0 72 4 9 3 37 0 61 -4 24
-4 46 0 48 3 2 3 29 0 60 -3 31 -3 58 0 60 3 2 3 29 0 59 -3 31 -4 60 -1 65 7
10 64 19 68 11 2 -3 26 -4 53 -4z m-1948 -641 c4 5 201 9 223 4 6 -1 13 -1 18
0 22 4 218 3 222 -1 2 -2 28 -2 57 1 29 3 77 4 106 1 30 -3 55 -3 57 0 2 4 29
3 60 0 31 -3 58 -3 60 0 2 4 24 4 48 0 24 -3 52 -4 61 0 10 3 42 3 72 0 31 -3
57 -3 59 0 2 4 24 4 48 0 24 -3 52 -4 61 0 10 3 42 3 72 0 31 -3 57 -2 60 2 3
5 9 6 14 3 7 -4 65 -6 110 -4 8 0 34 0 57 -2 l42 -2 0 -79 c0 -43 2 -82 6 -87
3 -5 2 -12 -3 -15 -4 -3 -6 -29 -3 -58 3 -29 4 -77 1 -106 -3 -29 -4 -55 -2
-57 2 -2 4 -56 4 -120 l0 -116 32 1 c17 1 36 1 41 0 6 -1 28 -1 50 0 123 4
305 4 305 0 0 -3 27 -3 61 0 33 3 63 2 65 -2 3 -5 9 -6 14 -3 7 4 197 9 225 5
6 -1 37 -1 70 0 108 1 168 -1 176 -5 4 -3 10 -1 14 5 4 6 10 8 14 6 8 -5 51
-7 148 -6 58 0 63 2 62 23 0 44 -1 162 0 177 0 8 0 76 0 150 0 74 0 142 0 150
2 51 0 103 -4 110 -10 16 24 30 71 30 27 0 56 0 64 1 8 0 42 0 75 0 33 -1 105
-1 160 -2 55 0 105 0 110 -1 6 0 26 0 45 1 19 1 42 1 50 0 8 0 42 0 75 0 33 0
67 0 75 0 8 0 31 0 50 0 19 1 42 1 50 0 8 0 40 0 70 0 30 0 62 0 70 0 8 0 31
0 50 0 19 1 42 1 50 0 8 0 40 0 70 0 30 0 62 0 70 0 8 0 31 0 50 0 19 1 42 1
50 0 8 0 40 0 70 0 30 0 62 0 70 0 8 0 31 0 50 1 165 7 258 -20 335 -95 62
-61 87 -124 91 -224 2 -46 5 -85 6 -87 2 -2 1 -30 -2 -64 -3 -33 -3 -60 0 -60
3 0 3 -42 0 -92 -3 -51 -3 -117 0 -146 3 -30 3 -55 0 -57 -3 -2 -3 -27 0 -57
3 -29 2 -77 -1 -106 -3 -29 -2 -55 1 -57 3 -2 3 -31 0 -64 -3 -34 -3 -61 0
-61 3 0 3 -42 0 -92 -3 -51 -3 -117 0 -146 3 -30 3 -55 0 -57 -3 -2 -3 -27 0
-57 3 -29 2 -77 -1 -106 -3 -29 -2 -55 1 -57 3 -2 3 -31 0 -64 -3 -34 -3 -61
0 -61 3 0 3 -42 0 -92 -3 -51 -3 -117 0 -146 3 -30 3 -55 0 -57 -3 -2 -3 -27
0 -57 3 -29 2 -77 -1 -106 -3 -29 -2 -55 1 -57 3 -2 3 -31 0 -64 -3 -34 -3
-61 0 -61 3 0 3 -42 0 -92 -3 -51 -3 -117 0 -146 3 -30 3 -55 0 -57 -3 -2 -3
-27 0 -57 3 -29 2 -77 -1 -106 -3 -29 -2 -55 1 -57 3 -2 3 -31 0 -64 -3 -34
-2 -61 3 -61 4 0 6 -4 3 -9 -4 -5 -6 -65 -6 -133 1 -67 1 -131 1 -140 0 -10 0
-38 0 -63 0 -49 0 -65 -2 -108 0 -34 -33 -130 -51 -153 -69 -87 -149 -133
-245 -140 -37 -3 -73 -7 -80 -9 -7 -2 -15 0 -18 6 -4 5 -10 7 -15 4 -8 -5
-202 -9 -225 -4 -5 1 -13 1 -18 0 -12 -2 -211 -3 -222 0 -5 1 -13 1 -18 0 -11
-2 -210 -3 -222 -1 -5 1 -44 1 -86 1 -68 0 -77 2 -82 19 -3 11 -2 20 1 20 4 0
6 26 5 57 -2 51 -3 107 -2 153 0 33 -13 109 -32 178 -80 300 -336 504 -659
528 -97 7 -92 7 -145 -1 -63 -9 -73 -11 -190 -41 -121 -30 -308 -41 -401 -22
-27 5 -58 11 -69 12 -11 2 -40 9 -65 16 -25 7 -53 14 -62 15 -10 2 -23 7 -29
11 -30 18 -271 12 -354 -10 -233 -61 -396 -199 -494 -421 -12 -26 -21 -55 -21
-64 0 -9 -5 -22 -12 -29 -7 -7 -9 -12 -6 -12 4 0 2 -15 -3 -32 -9 -27 -14
-115 -20 -293 0 -5 2 -22 4 -37 7 -43 -5 -50 -79 -50 -38 1 -73 2 -79 3 -5 1
-13 1 -18 0 -12 -2 -211 -3 -222 0 -5 1 -13 1 -18 0 -12 -2 -211 -3 -222 0 -5
1 -13 1 -18 0 -9 -1 -210 -3 -217 -1 -3 0 -41 2 -85 4 -79 3 -92 6 -150 31
-45 20 -117 94 -145 150 -21 43 -25 67 -28 170 -2 66 -3 136 -2 155 1 19 1 42
1 50 0 8 0 42 0 75 0 58 0 71 -2 98 -1 6 0 28 1 47 1 33 1 156 -1 300 0 36 0
72 0 80 3 95 0 283 -4 290 -3 5 -2 11 3 14 4 2 5 28 2 58 -3 29 -2 77 1 106 3
29 2 55 -1 57 -3 2 -3 31 0 64 3 34 3 61 0 61 -3 0 -4 37 -2 82 1 46 2 112 1
148 0 36 0 72 0 80 0 24 0 284 -1 295 0 6 1 24 1 40 2 33 3 153 2 173 -1 6 -1
18 -2 25 -1 6 0 28 1 47 1 33 1 156 -1 300 0 36 0 72 0 80 0 8 0 76 0 150 0
74 0 142 0 150 0 8 0 35 0 60 0 25 0 52 0 60 1 8 1 27 1 41 0 31 34 133 52
154 84 100 143 134 250 142 40 3 75 7 77 9 2 2 9 -1 16 -6 7 -5 14 -8 17 -5z
m1735 -3208 c5 -3 20 -8 34 -11 13 -2 51 -11 84 -20 33 -8 74 -18 90 -21 47
-10 321 -13 368 -5 23 5 58 11 77 14 70 12 93 17 112 27 10 5 18 7 18 5 0 -3
12 -1 28 6 36 14 189 19 238 7 21 -5 47 -12 57 -14 29 -7 98 -50 139 -87 65
-60 114 -160 123 -257 7 -68 7 -180 0 -191 -3 -6 -2 -10 2 -10 5 0 7 -15 5
-34 -4 -34 -5 -34 -59 -38 -30 -1 -56 0 -58 3 -2 3 -29 2 -60 -1 -31 -3 -58
-2 -61 2 -3 5 -9 6 -14 3 -8 -5 -202 -9 -225 -4 -5 1 -13 1 -18 0 -12 -2 -211
-3 -222 0 -5 1 -13 1 -18 0 -12 -2 -211 -3 -222 0 -5 1 -13 1 -18 0 -12 -2
-211 -3 -222 0 -5 1 -13 1 -18 0 -12 -2 -211 -3 -222 0 -5 1 -13 1 -18 0 -10
-2 -211 -3 -217 -1 -23 6 -120 3 -120 -3 0 -5 -4 -6 -9 -3 -4 3 -33 6 -64 7
l-56 2 -1 81 c-2 193 5 243 49 336 46 97 157 184 268 209 41 9 214 8 230 -2z"/>
<path d="M2768 3355 c-2 -2 -17 -5 -35 -8 -17 -3 -36 -8 -41 -11 -5 -3 -22 -8
-39 -10 -16 -3 -48 -13 -69 -23 -21 -9 -44 -18 -51 -19 -6 -1 -24 -11 -40 -21
-15 -11 -48 -33 -73 -49 -53 -35 -177 -158 -185 -185 -4 -10 -10 -19 -15 -19
-7 0 -37 -56 -90 -170 -26 -55 -44 -165 -44 -270 0 -121 6 -174 30 -249 19
-60 95 -211 105 -211 5 0 9 -6 9 -12 0 -18 105 -129 164 -173 53 -40 170 -104
226 -122 186 -62 428 -50 582 28 10 5 25 9 33 9 8 0 15 4 15 9 0 5 15 14 33
22 17 7 34 15 37 18 3 4 23 20 45 36 115 86 198 198 266 360 42 100 58 312 32
432 -22 100 -21 98 -66 193 -96 204 -295 367 -517 426 -55 14 -301 29 -312 19z
m232 -329 c51 -12 167 -77 209 -118 135 -131 183 -325 125 -498 -70 -206 -253
-333 -471 -325 -136 4 -236 49 -331 146 -46 47 -109 162 -120 220 -8 42 -8
185 0 219 19 81 84 191 147 247 46 42 137 90 197 106 57 15 185 16 244 3z"/>
</g>
</svg>
